<svg width="43" height="43" viewBox="0 0 43 43" fill="none" xmlns="http://www.w3.org/2000/svg">
<circle cx="21.5" cy="21.5" r="20" stroke="#D64933" stroke-width="3"/>
<path d="M23.5 10C23.5 9.17157 22.8284 8.5 22 8.5C21.1716 8.5 20.5 9.17157 20.5 10L23.5 10ZM20.9393 32.0607C21.5251 32.6464 22.4749 32.6464 23.0607 32.0607L32.6066 22.5147C33.1924 21.9289 33.1924 20.9792 32.6066 20.3934C32.0208 19.8076 31.0711 19.8076 30.4853 20.3934L22 28.8787L13.5147 20.3934C12.9289 19.8076 11.9792 19.8076 11.3934 20.3934C10.8076 20.9792 10.8076 21.9289 11.3934 22.5147L20.9393 32.0607ZM20.5 10L20.5 31L23.5 31L23.5 10L20.5 10Z" fill="#D64933"/>
</svg>
