<svg width="197" height="45" viewBox="0 0 197 45" fill="none" xmlns="http://www.w3.org/2000/svg">
<path fill-rule="evenodd" clip-rule="evenodd" d="M197 3C197 1.34315 195.657 0 194 0H3C1.34315 0 0 1.34315 0 3V31C0 32.6569 1.34314 34 3 34H86.9231C87.8038 34 88.64 34.387 89.21 35.0583L96.2131 43.3065C97.4112 44.7176 99.5888 44.7176 100.787 43.3065L107.79 35.0583C108.36 34.387 109.196 34 110.077 34H194C195.657 34 197 32.6569 197 31V3Z" fill="#1D1D1D"/>
<path d="M15.392 22.192C14.4107 22.192 13.5573 21.9467 12.832 21.456C12.1173 20.9547 11.5627 20.272 11.168 19.408C10.784 18.5333 10.592 17.5307 10.592 16.4C10.592 15.2267 10.7947 14.208 11.2 13.344C11.6053 12.48 12.1707 11.8133 12.896 11.344C13.632 10.8747 14.4853 10.64 15.456 10.64C16.2347 10.64 16.9387 10.7947 17.568 11.104C18.208 11.4027 18.7253 11.84 19.12 12.416C19.5253 12.9813 19.76 13.6587 19.824 14.448H17.968C17.8827 13.7333 17.616 13.1627 17.168 12.736C16.72 12.2987 16.144 12.08 15.44 12.08C14.832 12.08 14.2933 12.256 13.824 12.608C13.3653 12.9493 13.008 13.4453 12.752 14.096C12.496 14.7467 12.368 15.52 12.368 16.416C12.368 17.312 12.496 18.0853 12.752 18.736C13.0187 19.3867 13.3813 19.888 13.84 20.24C14.2987 20.5813 14.816 20.752 15.392 20.752C15.8933 20.752 16.3307 20.6507 16.704 20.448C17.0773 20.2347 17.376 19.9413 17.6 19.568C17.8347 19.1947 17.9733 18.7573 18.016 18.256H19.888C19.8133 19.0453 19.584 19.7387 19.2 20.336C18.816 20.9227 18.2987 21.3813 17.648 21.712C17.008 22.032 16.256 22.192 15.392 22.192ZM25.5903 22.192C24.6836 22.192 23.8996 22.0053 23.2383 21.632C22.5876 21.2587 22.0863 20.7307 21.7343 20.048C21.3823 19.3547 21.2063 18.5387 21.2063 17.6C21.2063 16.64 21.3823 15.824 21.7343 15.152C22.0863 14.4693 22.5876 13.9413 23.2383 13.568C23.8996 13.1947 24.6889 13.008 25.6063 13.008C26.9716 13.008 28.0436 13.4187 28.8223 14.24C29.6009 15.0507 29.9903 16.1707 29.9903 17.6C29.9903 18.5387 29.8143 19.3547 29.4623 20.048C29.1103 20.7307 28.6036 21.2587 27.9423 21.632C27.2916 22.0053 26.5076 22.192 25.5903 22.192ZM25.6063 20.848C26.4596 20.848 27.1316 20.56 27.6223 19.984C28.1236 19.3973 28.3743 18.6027 28.3743 17.6C28.3743 16.5867 28.1236 15.792 27.6223 15.216C27.1316 14.64 26.4596 14.352 25.6063 14.352C24.7423 14.352 24.0649 14.64 23.5743 15.216C23.0836 15.792 22.8383 16.5867 22.8383 17.6C22.8383 18.6027 23.0836 19.3973 23.5743 19.984C24.0649 20.56 24.7423 20.848 25.6063 20.848ZM36.5245 13.008C37.3138 13.008 38.0018 13.2053 38.5885 13.6C39.1858 13.984 39.6552 14.5227 39.9965 15.216C40.3378 15.9093 40.5085 16.704 40.5085 17.6C40.5085 18.4853 40.3378 19.2747 39.9965 19.968C39.6552 20.6613 39.1858 21.2053 38.5885 21.6C38.0018 21.9947 37.3138 22.192 36.5245 22.192C35.9272 22.192 35.3778 22.0693 34.8765 21.824C34.3858 21.5787 33.9805 21.2427 33.6605 20.816V24.848H32.0445V13.2H33.5805L33.6285 14.4C33.9485 13.9733 34.3592 13.6373 34.8605 13.392C35.3618 13.136 35.9165 13.008 36.5245 13.008ZM36.1725 20.832C36.7165 20.832 37.1912 20.6933 37.5965 20.416C38.0018 20.1387 38.3165 19.76 38.5405 19.28C38.7645 18.7893 38.8765 18.2293 38.8765 17.6C38.8765 16.96 38.7645 16.4 38.5405 15.92C38.3165 15.4293 38.0018 15.0507 37.5965 14.784C37.1912 14.5067 36.7165 14.368 36.1725 14.368C35.6178 14.368 35.1112 14.528 34.6525 14.848C34.2045 15.1573 33.8738 15.584 33.6605 16.128V19.04C33.8738 19.5947 34.2045 20.032 34.6525 20.352C35.1112 20.672 35.6178 20.832 36.1725 20.832ZM45.6028 17.552L46.4348 19.744L47.2668 17.536L49.1068 13.2H50.7868L46.7068 22.816C46.4614 23.3813 46.1948 23.824 45.9068 24.144C45.6294 24.4747 45.3148 24.704 44.9628 24.832C44.6108 24.9707 44.2001 25.04 43.7308 25.04H42.1628V23.728H43.6188C43.8961 23.728 44.1308 23.664 44.3228 23.536C44.5254 23.4187 44.7068 23.2373 44.8668 22.992C45.0268 22.7573 45.1868 22.448 45.3468 22.064L45.5868 21.488L42.0828 13.2H43.7628L45.6028 17.552ZM67.9513 22C67.4073 22 66.9433 21.8933 66.5593 21.68C66.1753 21.456 65.8873 21.1413 65.6953 20.736C65.5033 20.3307 65.4073 19.856 65.4073 19.312V11.536L67.0233 10.656V19.312C67.0233 19.568 67.0606 19.8027 67.1353 20.016C67.2099 20.2293 67.3539 20.3947 67.5673 20.512C67.7913 20.6293 68.1166 20.688 68.5433 20.688H71.1833V22H67.9513ZM63.3273 14.512V13.2H69.7753V14.512H63.3273ZM77.6215 22.192C76.7148 22.192 75.9308 22.0053 75.2695 21.632C74.6188 21.2587 74.1175 20.7307 73.7655 20.048C73.4135 19.3547 73.2375 18.5387 73.2375 17.6C73.2375 16.64 73.4135 15.824 73.7655 15.152C74.1175 14.4693 74.6188 13.9413 75.2695 13.568C75.9308 13.1947 76.7202 13.008 77.6375 13.008C79.0028 13.008 80.0748 13.4187 80.8535 14.24C81.6322 15.0507 82.0215 16.1707 82.0215 17.6C82.0215 18.5387 81.8455 19.3547 81.4935 20.048C81.1415 20.7307 80.6348 21.2587 79.9735 21.632C79.3228 22.0053 78.5388 22.192 77.6215 22.192ZM77.6375 20.848C78.4908 20.848 79.1628 20.56 79.6535 19.984C80.1548 19.3973 80.4055 18.6027 80.4055 17.6C80.4055 16.5867 80.1548 15.792 79.6535 15.216C79.1628 14.64 78.4908 14.352 77.6375 14.352C76.7735 14.352 76.0962 14.64 75.6055 15.216C75.1148 15.792 74.8695 16.5867 74.8695 17.6C74.8695 18.6027 75.1148 19.3973 75.6055 19.984C76.0962 20.56 76.7735 20.848 77.6375 20.848ZM98.706 22.192C97.7993 22.192 97.01 22.0053 96.338 21.632C95.6767 21.248 95.1647 20.7147 94.802 20.032C94.4393 19.3387 94.258 18.528 94.258 17.6C94.258 16.6507 94.4447 15.8347 94.818 15.152C95.1913 14.4587 95.714 13.9307 96.386 13.568C97.058 13.1947 97.842 13.008 98.738 13.008C99.4527 13.008 100.093 13.1413 100.658 13.408C101.234 13.664 101.698 14.032 102.05 14.512C102.413 14.992 102.621 15.5627 102.674 16.224H101.058C100.973 15.6267 100.717 15.168 100.29 14.848C99.874 14.5173 99.3567 14.352 98.738 14.352C98.162 14.352 97.6607 14.4853 97.234 14.752C96.8073 15.008 96.4767 15.376 96.242 15.856C96.0073 16.336 95.89 16.9173 95.89 17.6C95.89 18.6133 96.146 19.408 96.658 19.984C97.1807 20.56 97.8633 20.848 98.706 20.848C99.09 20.848 99.4473 20.7733 99.778 20.624C100.109 20.4747 100.391 20.2613 100.626 19.984C100.861 19.696 101.021 19.3653 101.106 18.992H102.738C102.631 19.6533 102.386 20.224 102.002 20.704C101.629 21.1733 101.154 21.5413 100.578 21.808C100.013 22.064 99.3887 22.192 98.706 22.192ZM108.056 22V10.24H109.672V22H108.056ZM104.808 22V20.688H112.936V22H104.808ZM105.976 11.552V10.24H108.856V11.552H105.976ZM118.543 22V13.2H120.159V22H118.543ZM115.295 22V20.688H123.183V22H115.295ZM116.463 14.512V13.2H119.343V14.512H116.463ZM118.431 11.696V9.952H120.239V11.696H118.431ZM130.181 13.008C130.97 13.008 131.658 13.2053 132.245 13.6C132.842 13.984 133.311 14.5227 133.653 15.216C133.994 15.9093 134.165 16.704 134.165 17.6C134.165 18.4853 133.994 19.2747 133.653 19.968C133.311 20.6613 132.842 21.2053 132.245 21.6C131.658 21.9947 130.97 22.192 130.181 22.192C129.583 22.192 129.034 22.0693 128.533 21.824C128.042 21.5787 127.637 21.2427 127.317 20.816V24.848H125.701V13.2H127.237L127.285 14.4C127.605 13.9733 128.015 13.6373 128.517 13.392C129.018 13.136 129.573 13.008 130.181 13.008ZM129.829 20.832C130.373 20.832 130.847 20.6933 131.253 20.416C131.658 20.1387 131.973 19.76 132.197 19.28C132.421 18.7893 132.533 18.2293 132.533 17.6C132.533 16.96 132.421 16.4 132.197 15.92C131.973 15.4293 131.658 15.0507 131.253 14.784C130.847 14.5067 130.373 14.368 129.829 14.368C129.274 14.368 128.767 14.528 128.309 14.848C127.861 15.1573 127.53 15.584 127.317 16.128V19.04C127.53 19.5947 127.861 20.032 128.309 20.352C128.767 20.672 129.274 20.832 129.829 20.832ZM140.603 13.008C141.392 13.008 142.08 13.2053 142.667 13.6C143.264 13.984 143.734 14.5227 144.075 15.216C144.416 15.9093 144.587 16.704 144.587 17.6C144.587 18.4853 144.416 19.2747 144.075 19.968C143.734 20.6613 143.264 21.2053 142.667 21.6C142.08 21.9947 141.392 22.192 140.603 22.192C139.995 22.192 139.435 22.064 138.923 21.808C138.422 21.5413 138.016 21.1947 137.707 20.768L137.659 22H136.123V10.24H137.739V14.368C138.048 13.9413 138.454 13.6107 138.955 13.376C139.456 13.1307 140.006 13.008 140.603 13.008ZM140.251 20.832C140.795 20.832 141.27 20.6933 141.675 20.416C142.08 20.1387 142.395 19.76 142.619 19.28C142.843 18.7893 142.955 18.2293 142.955 17.6C142.955 16.96 142.843 16.4 142.619 15.92C142.395 15.4293 142.08 15.0507 141.675 14.784C141.27 14.5067 140.795 14.368 140.251 14.368C139.686 14.368 139.179 14.528 138.731 14.848C138.283 15.1573 137.952 15.5947 137.739 16.16V19.024C137.952 19.5787 138.283 20.0213 138.731 20.352C139.179 20.672 139.686 20.832 140.251 20.832ZM150.465 22.192C149.559 22.192 148.775 22.0053 148.113 21.632C147.463 21.2587 146.961 20.7307 146.609 20.048C146.257 19.3547 146.081 18.5387 146.081 17.6C146.081 16.64 146.257 15.824 146.609 15.152C146.961 14.4693 147.463 13.9413 148.113 13.568C148.775 13.1947 149.564 13.008 150.481 13.008C151.847 13.008 152.919 13.4187 153.697 14.24C154.476 15.0507 154.865 16.1707 154.865 17.6C154.865 18.5387 154.689 19.3547 154.337 20.048C153.985 20.7307 153.479 21.2587 152.817 21.632C152.167 22.0053 151.383 22.192 150.465 22.192ZM150.481 20.848C151.335 20.848 152.007 20.56 152.497 19.984C152.999 19.3973 153.249 18.6027 153.249 17.6C153.249 16.5867 152.999 15.792 152.497 15.216C152.007 14.64 151.335 14.352 150.481 14.352C149.617 14.352 148.94 14.64 148.449 15.216C147.959 15.792 147.713 16.5867 147.713 17.6C147.713 18.6027 147.959 19.3973 148.449 19.984C148.94 20.56 149.617 20.848 150.481 20.848ZM163.192 22L163.128 20V16.24C163.128 15.6107 162.92 15.12 162.504 14.768C162.098 14.4053 161.538 14.224 160.824 14.224C160.13 14.224 159.565 14.384 159.128 14.704C158.69 15.0133 158.45 15.4453 158.408 16H156.824C156.877 15.3707 157.08 14.8373 157.432 14.4C157.784 13.952 158.253 13.6107 158.84 13.376C159.426 13.1307 160.104 13.008 160.872 13.008C161.661 13.008 162.344 13.1413 162.92 13.408C163.496 13.664 163.938 14.0373 164.248 14.528C164.568 15.0187 164.727 15.616 164.727 16.32V22H163.192ZM160.008 22.192C159.432 22.192 158.925 22.0907 158.488 21.888C158.05 21.6747 157.709 21.376 157.464 20.992C157.218 20.5973 157.096 20.1387 157.096 19.616C157.096 18.7093 157.442 18.0053 158.136 17.504C158.84 17.0027 159.821 16.752 161.08 16.752H163.336V17.952H161.016C160.29 17.952 159.72 18.0907 159.304 18.368C158.898 18.6453 158.696 19.0347 158.696 19.536C158.696 19.952 158.84 20.2773 159.128 20.512C159.426 20.7467 159.826 20.864 160.328 20.864C160.968 20.864 161.533 20.6933 162.024 20.352C162.525 20 162.93 19.52 163.24 18.912L163.416 20.096C163.138 20.768 162.712 21.2853 162.136 21.648C161.56 22.0107 160.85 22.192 160.008 22.192ZM173.694 16.976V15.92C173.694 15.4613 173.555 15.0933 173.278 14.816C173 14.528 172.6 14.384 172.078 14.384C171.416 14.384 170.824 14.6347 170.302 15.136C169.779 15.6267 169.363 16.3787 169.054 17.392L168.83 15.76C169.064 15.152 169.347 14.6453 169.678 14.24C170.019 13.8347 170.408 13.5307 170.846 13.328C171.294 13.1147 171.784 13.008 172.318 13.008C173.203 13.008 173.923 13.264 174.478 13.776C175.032 14.2773 175.31 14.992 175.31 15.92V16.976H173.694ZM167.742 22V13.2H169.262L169.358 15.2V22H167.742ZM181.236 13.008C181.844 13.008 182.399 13.1307 182.9 13.376C183.401 13.6107 183.807 13.9413 184.116 14.368V10.24H185.716V22H184.196L184.148 20.768C183.839 21.1947 183.428 21.5413 182.916 21.808C182.415 22.064 181.855 22.192 181.236 22.192C180.457 22.192 179.769 21.9947 179.172 21.6C178.575 21.2053 178.105 20.6613 177.764 19.968C177.433 19.2747 177.268 18.4853 177.268 17.6C177.268 16.704 177.433 15.9093 177.764 15.216C178.105 14.5227 178.575 13.984 179.172 13.6C179.769 13.2053 180.457 13.008 181.236 13.008ZM181.588 20.832C182.164 20.832 182.676 20.672 183.124 20.352C183.572 20.0213 183.903 19.5787 184.116 19.024V16.16C183.903 15.5947 183.572 15.1573 183.124 14.848C182.676 14.528 182.164 14.368 181.588 14.368C181.055 14.368 180.585 14.5067 180.18 14.784C179.775 15.0507 179.455 15.4293 179.22 15.92C178.996 16.4 178.884 16.96 178.884 17.6C178.884 18.2293 178.996 18.7893 179.22 19.28C179.455 19.76 179.775 20.1387 180.18 20.416C180.585 20.6933 181.055 20.832 181.588 20.832Z" fill="white"/>
</svg>
