<svg width="138" height="82" viewBox="0 0 138 82" fill="none" xmlns="http://www.w3.org/2000/svg">
<g clip-path="url(#clip0_15_90)">
<path d="M5.95211 58.7997V23.1993C5.95211 16.2249 6.18906 15.0338 16.7142 12.0873C36.5262 6.54581 54.0266 5.45312 68.0345 5.43925V0H0.00976562V82H68.0341V77.0394C54.0263 77.0236 36.5262 75.4552 16.7138 69.9127C6.18906 66.9662 5.95211 65.7751 5.95211 58.7997ZM132.05 58.7997V23.1993C132.05 16.2249 131.813 15.0338 121.287 12.0873C101.473 6.54581 83.9736 5.45312 69.9667 5.43925V0H137.991V82H69.9667V77.0394C83.9736 77.0236 101.473 75.4552 121.287 69.9127C131.813 66.9662 132.05 65.7751 132.05 58.7997Z" fill="#1C3426"/>
<path d="M32.9927 26.1503V37.242H20.2706V26.1503H12.5482V55.7761H20.2706V44.6512H32.9927V55.7761H40.7181V26.1503H32.9927ZM67.55 33.5634V26.1503H49.0031C45.0736 26.1503 43.7548 27.0185 43.7548 32.2014V49.7215C43.7548 54.906 45.0739 55.7761 49.0031 55.7761H67.55V48.3453H51.3302V44.6512H67.55V37.2417H51.3302V33.5634H67.55ZM91.4084 37.242H78.0091V33.5637H96.0381V26.1503H75.7738C71.6012 26.1503 70.4339 27.1143 70.4339 32.234V38.8327C70.4339 44.775 71.5902 44.6512 75.7738 44.6512H89.1706V48.3453H70.4313V55.7761H91.4084C95.58 55.7761 96.7463 54.8111 96.7463 49.6934V43.2463C96.7463 37.302 95.5917 37.242 91.4084 37.242ZM120.109 37.242H106.71V33.5637H124.739V26.1503H104.472C100.301 26.1503 99.1353 27.1143 99.1353 32.234V38.8327C99.1353 44.775 100.291 44.6512 104.472 44.6512H117.871V48.3453H99.1324V55.7761H120.109C120.109 55.7761 125.448 54.8111 125.448 49.6934V43.2463C125.448 37.302 124.29 37.242 120.109 37.242Z" fill="#1C3426"/>
</g>
<defs>
<clipPath id="clip0_15_90">
<rect width="138" height="82" fill="white"/>
</clipPath>
</defs>
</svg>
