<svg width="177" height="106" viewBox="0 0 177 106" fill="none" xmlns="http://www.w3.org/2000/svg">
<g clip-path="url(#clip0_18_266)">
<path d="M7.63391 76.0094V29.9893C7.63391 20.9736 7.93783 19.434 21.4374 15.625C46.8485 8.46166 69.2946 7.04916 87.2613 7.03123V0H0.012207V106H87.2609V99.5875C69.2942 99.567 46.8485 97.5396 21.437 90.375C7.93783 86.566 7.63391 85.0264 7.63391 76.0094M169.368 76.0094V29.9893C169.368 20.9736 169.064 19.434 155.563 15.625C130.15 8.46166 107.705 7.04916 89.7396 7.03123V0H176.988V106H89.7396V99.5875C107.705 99.567 130.15 97.5396 155.563 90.375C169.064 86.566 169.368 85.0264 169.368 76.0094" fill="white"/>
<path d="M42.3166 33.8041V48.1421H25.9991V33.8041H16.0942V72.1008H25.9991V57.7198H42.3166V72.1008H52.2251V33.8041H42.3166ZM86.64 43.3868V33.8041H62.8516C57.8115 33.8041 56.12 34.9264 56.12 41.6262V64.2741C56.12 70.976 57.812 72.1008 62.8516 72.1008H86.64V62.4951H65.8364V57.7198H86.64V48.1417H65.8364V43.3868H86.64ZM117.241 48.1421H100.055V43.3872H123.179V33.8041H97.188C91.8361 33.8041 90.339 35.0502 90.339 41.6683V50.1983C90.339 57.8799 91.822 57.7198 97.188 57.7198H114.371V62.4951H90.3356V72.1008H117.241C122.592 72.1008 124.087 70.8534 124.087 64.2378V55.9038C124.087 48.2197 122.606 48.1421 117.241 48.1421M154.052 48.1421H136.867V43.3872H159.991V33.8041H133.997C128.646 33.8041 127.152 35.0502 127.152 41.6683V50.1983C127.152 57.8799 128.633 57.7198 133.997 57.7198H151.182V62.4951H127.148V72.1008H154.052C154.052 72.1008 160.9 70.8534 160.9 64.2378V55.9038C160.9 48.2197 159.416 48.1421 154.052 48.1421" fill="white"/>
</g>
<defs>
<clipPath id="clip0_18_266">
<rect width="177" height="106" fill="white"/>
</clipPath>
</defs>
</svg>
