<svg width="402" height="471" viewBox="0 0 402 471" fill="none" xmlns="http://www.w3.org/2000/svg">
<path d="M110.592 453.172L112.464 450.184H114.174L109.278 457.852V463H107.766V457.852L102.87 450.184H104.598L106.488 453.19C107.304 454.462 107.988 455.566 108.54 456.502C109.308 455.206 109.992 454.096 110.592 453.172ZM120.92 458.356V458.86H113.864C113.936 459.868 114.218 460.63 114.71 461.146C115.202 461.65 115.874 461.902 116.726 461.902C118.01 461.902 118.832 461.326 119.192 460.174H120.686C120.434 461.11 119.966 461.854 119.282 462.406C118.598 462.946 117.734 463.216 116.69 463.216C115.406 463.216 114.368 462.778 113.576 461.902C112.772 461.026 112.37 459.844 112.37 458.356C112.37 456.892 112.766 455.716 113.558 454.828C114.338 453.94 115.37 453.496 116.654 453.496C117.986 453.496 119.03 453.958 119.786 454.882C120.542 455.806 120.92 456.964 120.92 458.356ZM116.654 454.81C115.898 454.81 115.28 455.05 114.8 455.53C114.32 455.998 114.02 456.676 113.9 457.564H119.372C119.3 456.748 119.024 456.088 118.544 455.584C118.064 455.068 117.434 454.81 116.654 454.81ZM130.137 461.83H130.659V463C130.419 463.036 130.155 463.054 129.867 463.054C128.895 463.054 128.373 462.61 128.301 461.722C127.653 462.718 126.645 463.216 125.277 463.216C124.257 463.216 123.453 462.982 122.865 462.514C122.289 462.034 122.001 461.362 122.001 460.498C122.001 458.818 123.147 457.858 125.439 457.618L126.771 457.474C127.743 457.366 128.229 456.94 128.229 456.196C128.229 455.68 128.067 455.308 127.743 455.08C127.431 454.852 126.897 454.738 126.141 454.738C125.337 454.738 124.755 454.876 124.395 455.152C124.047 455.416 123.849 455.89 123.801 456.574H122.361C122.481 454.522 123.741 453.496 126.141 453.496C128.469 453.496 129.633 454.396 129.633 456.196V461.38C129.633 461.68 129.801 461.83 130.137 461.83ZM125.349 461.992C126.117 461.992 126.789 461.758 127.365 461.29C127.941 460.834 128.229 460.18 128.229 459.328V458.23C127.965 458.434 127.557 458.566 127.005 458.626L125.655 458.788C124.875 458.884 124.317 459.064 123.981 459.328C123.657 459.592 123.495 459.97 123.495 460.462C123.495 460.942 123.651 461.32 123.963 461.596C124.275 461.86 124.737 461.992 125.349 461.992ZM136.284 453.568C136.524 453.568 136.686 453.574 136.77 453.586V454.972H136.41C135.45 454.972 134.7 455.212 134.16 455.692C133.632 456.16 133.368 456.832 133.368 457.708V463H131.928V453.712H133.296V455.35C133.92 454.162 134.916 453.568 136.284 453.568ZM139.555 463H138.115V450.184H139.555V463ZM146.115 457.564L147.429 453.712H148.995L145.071 464.458C144.795 465.238 144.417 465.784 143.937 466.096C143.457 466.42 142.827 466.582 142.047 466.582C141.783 466.582 141.495 466.564 141.183 466.528V465.322H142.029C142.857 465.322 143.421 464.938 143.721 464.17L144.045 463.306L140.553 453.712H142.137L143.451 457.582C143.919 458.95 144.363 460.288 144.783 461.596C145.131 460.48 145.575 459.136 146.115 457.564ZM161.684 458.356V458.86H154.628C154.7 459.868 154.982 460.63 155.474 461.146C155.966 461.65 156.638 461.902 157.49 461.902C158.774 461.902 159.596 461.326 159.956 460.174H161.45C161.198 461.11 160.73 461.854 160.046 462.406C159.362 462.946 158.498 463.216 157.454 463.216C156.17 463.216 155.132 462.778 154.34 461.902C153.536 461.026 153.134 459.844 153.134 458.356C153.134 456.892 153.53 455.716 154.322 454.828C155.102 453.94 156.134 453.496 157.418 453.496C158.75 453.496 159.794 453.958 160.55 454.882C161.306 455.806 161.684 456.964 161.684 458.356ZM157.418 454.81C156.662 454.81 156.044 455.05 155.564 455.53C155.084 455.998 154.784 456.676 154.664 457.564H160.136C160.064 456.748 159.788 456.088 159.308 455.584C158.828 455.068 158.198 454.81 157.418 454.81ZM173.167 453.496C174.175 453.496 174.955 453.79 175.507 454.378C176.071 454.954 176.353 455.728 176.353 456.7V463H174.913V456.844C174.913 455.476 174.265 454.792 172.969 454.792C172.285 454.792 171.715 455.068 171.259 455.62C170.815 456.16 170.593 456.928 170.593 457.924V463H169.153V456.844C169.153 455.476 168.505 454.792 167.209 454.792C166.537 454.792 165.973 455.068 165.517 455.62C165.061 456.16 164.833 456.928 164.833 457.924V463H163.393V453.712H164.761V455.08C165.373 454.024 166.267 453.496 167.443 453.496C168.835 453.496 169.789 454.078 170.305 455.242C170.953 454.078 171.907 453.496 173.167 453.496ZM179.986 452.308H178.456V450.544H179.986V452.308ZM179.95 463H178.51V453.712H179.95V463ZM185.389 463.216C182.905 463.216 181.591 462.16 181.447 460.048H182.905C182.989 460.744 183.217 461.242 183.589 461.542C183.973 461.83 184.573 461.974 185.389 461.974C186.877 461.974 187.621 461.494 187.621 460.534C187.621 460.114 187.465 459.796 187.153 459.58C186.853 459.364 186.301 459.178 185.497 459.022L184.633 458.86C182.701 458.5 181.735 457.588 181.735 456.124C181.735 455.32 182.035 454.684 182.635 454.216C183.247 453.736 184.075 453.496 185.119 453.496C187.579 453.496 188.839 454.522 188.899 456.574H187.459C187.423 455.902 187.219 455.428 186.847 455.152C186.475 454.876 185.899 454.738 185.119 454.738C184.495 454.738 184.015 454.858 183.679 455.098C183.343 455.338 183.175 455.674 183.175 456.106C183.175 456.514 183.319 456.82 183.607 457.024C183.895 457.228 184.375 457.402 185.047 457.546L185.875 457.708C187.015 457.936 187.831 458.26 188.323 458.68C188.827 459.1 189.079 459.688 189.079 460.444C189.079 461.32 188.749 462.004 188.089 462.496C187.441 462.976 186.541 463.216 185.389 463.216ZM193.967 463.216C191.483 463.216 190.169 462.16 190.025 460.048H191.483C191.567 460.744 191.795 461.242 192.167 461.542C192.551 461.83 193.151 461.974 193.967 461.974C195.455 461.974 196.199 461.494 196.199 460.534C196.199 460.114 196.043 459.796 195.731 459.58C195.431 459.364 194.879 459.178 194.075 459.022L193.211 458.86C191.279 458.5 190.313 457.588 190.313 456.124C190.313 455.32 190.613 454.684 191.213 454.216C191.825 453.736 192.653 453.496 193.697 453.496C196.157 453.496 197.417 454.522 197.477 456.574H196.037C196.001 455.902 195.797 455.428 195.425 455.152C195.053 454.876 194.477 454.738 193.697 454.738C193.073 454.738 192.593 454.858 192.257 455.098C191.921 455.338 191.753 455.674 191.753 456.106C191.753 456.514 191.897 456.82 192.185 457.024C192.473 457.228 192.953 457.402 193.625 457.546L194.453 457.708C195.593 457.936 196.409 458.26 196.901 458.68C197.405 459.1 197.657 459.688 197.657 460.444C197.657 461.32 197.327 462.004 196.667 462.496C196.019 462.976 195.119 463.216 193.967 463.216ZM200.57 452.308H199.04V450.544H200.57V452.308ZM200.534 463H199.094V453.712H200.534V463ZM209.987 461.884C209.135 462.772 208.055 463.216 206.747 463.216C205.439 463.216 204.359 462.772 203.507 461.884C202.667 461.008 202.247 459.832 202.247 458.356C202.247 456.88 202.667 455.704 203.507 454.828C204.359 453.94 205.439 453.496 206.747 453.496C208.055 453.496 209.135 453.94 209.987 454.828C210.827 455.704 211.247 456.88 211.247 458.356C211.247 459.832 210.827 461.008 209.987 461.884ZM204.569 460.966C205.109 461.602 205.835 461.92 206.747 461.92C207.659 461.92 208.385 461.602 208.925 460.966C209.465 460.342 209.735 459.472 209.735 458.356C209.735 457.228 209.465 456.352 208.925 455.728C208.385 455.104 207.659 454.792 206.747 454.792C205.835 454.792 205.109 455.104 204.569 455.728C204.029 456.352 203.759 457.228 203.759 458.356C203.759 459.472 204.029 460.342 204.569 460.966ZM217.247 453.496C218.279 453.496 219.083 453.778 219.659 454.342C220.235 454.906 220.523 455.698 220.523 456.718V463H219.083V456.862C219.083 455.482 218.375 454.792 216.959 454.792C216.287 454.792 215.693 455.044 215.177 455.548C214.661 456.052 214.403 456.784 214.403 457.744V463H212.963V453.712H214.331V455.098C215.039 454.03 216.011 453.496 217.247 453.496ZM230.467 453.568C230.707 453.568 230.869 453.574 230.953 453.586V454.972H230.593C229.633 454.972 228.883 455.212 228.343 455.692C227.815 456.16 227.551 456.832 227.551 457.708V463H226.111V453.712H227.479V455.35C228.103 454.162 229.099 453.568 230.467 453.568ZM239.854 458.356V458.86H232.798C232.87 459.868 233.152 460.63 233.644 461.146C234.136 461.65 234.808 461.902 235.66 461.902C236.944 461.902 237.766 461.326 238.126 460.174H239.62C239.368 461.11 238.9 461.854 238.216 462.406C237.532 462.946 236.668 463.216 235.624 463.216C234.34 463.216 233.302 462.778 232.51 461.902C231.706 461.026 231.304 459.844 231.304 458.356C231.304 456.892 231.7 455.716 232.492 454.828C233.272 453.94 234.304 453.496 235.588 453.496C236.92 453.496 237.964 453.958 238.72 454.882C239.476 455.806 239.854 456.964 239.854 458.356ZM235.588 454.81C234.832 454.81 234.214 455.05 233.734 455.53C233.254 455.998 232.954 456.676 232.834 457.564H238.306C238.234 456.748 237.958 456.088 237.478 455.584C236.998 455.068 236.368 454.81 235.588 454.81ZM248.546 455.044V450.184H249.986V463H248.618V461.56C247.874 462.664 246.812 463.216 245.432 463.216C244.124 463.216 243.08 462.772 242.3 461.884C241.508 460.996 241.112 459.82 241.112 458.356C241.112 456.868 241.508 455.686 242.3 454.81C243.068 453.934 244.112 453.496 245.432 453.496C246.764 453.496 247.802 454.012 248.546 455.044ZM242.624 458.428C242.624 459.532 242.894 460.39 243.434 461.002C243.974 461.614 244.7 461.92 245.612 461.92C246.524 461.92 247.25 461.602 247.79 460.966C248.33 460.342 248.6 459.472 248.6 458.356C248.6 457.252 248.33 456.382 247.79 455.746C247.25 455.11 246.524 454.792 245.612 454.792C244.712 454.792 243.986 455.122 243.434 455.782C242.894 456.43 242.624 457.312 242.624 458.428ZM258.264 458.968V453.712H259.704V463H258.336V461.614C257.628 462.682 256.656 463.216 255.42 463.216C254.388 463.216 253.584 462.934 253.008 462.37C252.432 461.806 252.144 461.014 252.144 459.994V453.712H253.584V459.85C253.584 461.23 254.292 461.92 255.708 461.92C256.38 461.92 256.974 461.668 257.49 461.164C258.006 460.66 258.264 459.928 258.264 458.968ZM265.717 463.216C264.433 463.216 263.395 462.772 262.603 461.884C261.811 460.996 261.415 459.82 261.415 458.356C261.415 456.868 261.811 455.686 262.603 454.81C263.371 453.934 264.409 453.496 265.717 453.496C266.821 453.496 267.727 453.796 268.435 454.396C269.143 454.996 269.569 455.818 269.713 456.862H268.219C268.111 456.202 267.823 455.692 267.355 455.332C266.899 454.972 266.353 454.792 265.717 454.792C264.865 454.792 264.187 455.104 263.683 455.728C263.179 456.34 262.927 457.216 262.927 458.356C262.927 459.484 263.179 460.36 263.683 460.984C264.199 461.608 264.877 461.92 265.717 461.92C266.353 461.92 266.905 461.734 267.373 461.362C267.841 460.99 268.129 460.474 268.237 459.814H269.713C269.557 460.858 269.113 461.686 268.381 462.298C267.661 462.91 266.773 463.216 265.717 463.216ZM274.968 453.712V454.972H273.06V461.002C273.06 461.53 273.414 461.794 274.122 461.794H274.968V463C274.572 463.036 274.23 463.054 273.942 463.054C272.394 463.054 271.62 462.412 271.62 461.128V454.972H270.09V453.712H271.62V451.084H273.06V453.712H274.968ZM277.966 452.308H276.436V450.544H277.966V452.308ZM277.93 463H276.49V453.712H277.93V463ZM287.384 461.884C286.532 462.772 285.452 463.216 284.144 463.216C282.836 463.216 281.756 462.772 280.904 461.884C280.064 461.008 279.644 459.832 279.644 458.356C279.644 456.88 280.064 455.704 280.904 454.828C281.756 453.94 282.836 453.496 284.144 453.496C285.452 453.496 286.532 453.94 287.384 454.828C288.224 455.704 288.644 456.88 288.644 458.356C288.644 459.832 288.224 461.008 287.384 461.884ZM281.966 460.966C282.506 461.602 283.232 461.92 284.144 461.92C285.056 461.92 285.782 461.602 286.322 460.966C286.862 460.342 287.132 459.472 287.132 458.356C287.132 457.228 286.862 456.352 286.322 455.728C285.782 455.104 285.056 454.792 284.144 454.792C283.232 454.792 282.506 455.104 281.966 455.728C281.426 456.352 281.156 457.228 281.156 458.356C281.156 459.472 281.426 460.342 281.966 460.966ZM294.643 453.496C295.675 453.496 296.479 453.778 297.055 454.342C297.631 454.906 297.919 455.698 297.919 456.718V463H296.479V456.862C296.479 455.482 295.771 454.792 294.355 454.792C293.683 454.792 293.089 455.044 292.573 455.548C292.057 456.052 291.799 456.784 291.799 457.744V463H290.359V453.712H291.727V455.098C292.435 454.03 293.407 453.496 294.643 453.496Z" fill="black"/>
<circle cx="201" cy="201" r="201" fill="#00704A"/>
<path d="M402 201C402 237.887 391.85 274.062 372.66 305.565C353.471 337.067 325.983 362.681 293.206 379.603C260.43 396.524 223.629 404.1 186.834 401.5C150.039 398.9 114.669 386.226 84.5972 364.864C54.5255 343.502 30.9121 314.277 16.3428 280.39C1.77351 246.502 -3.18968 209.259 1.99677 172.738C7.18322 136.218 22.3193 101.829 45.7473 73.3379C69.1754 44.8466 99.9919 23.3515 134.822 11.2068L201 201H402Z" fill="#1C3426"/>
<path d="M291.554 21.5537C318.647 35.2254 342.292 54.8544 360.716 78.9681C379.14 103.082 391.865 131.054 397.936 160.788C404.008 190.521 403.268 221.243 395.772 250.649C388.275 280.056 374.218 307.383 354.654 330.582C335.09 353.78 310.527 372.248 282.807 384.599C255.088 396.95 224.931 402.864 194.6 401.898C164.269 400.932 134.55 393.11 107.673 379.02C80.7954 364.929 57.4576 344.936 39.4097 320.539L201 201L291.554 21.5537Z" fill="#D64933"/>
<path d="M236.836 277.375C236.269 277.375 235.736 277.275 235.236 277.075C234.753 276.875 234.294 276.642 233.861 276.375C233.444 276.092 233.036 275.85 232.636 275.65C232.236 275.433 231.836 275.325 231.436 275.325C230.969 275.325 230.569 275.5 230.236 275.85C229.919 276.2 229.753 276.683 229.736 277.3H227.561C227.578 276.383 227.769 275.625 228.136 275.025C228.503 274.408 228.969 273.95 229.536 273.65C230.119 273.333 230.719 273.175 231.336 273.175C231.919 273.175 232.453 273.283 232.936 273.5C233.436 273.7 233.894 273.933 234.311 274.2C234.744 274.467 235.161 274.708 235.561 274.925C235.961 275.125 236.361 275.225 236.761 275.225C237.228 275.225 237.619 275.05 237.936 274.7C238.253 274.35 238.419 273.875 238.436 273.275H240.636C240.603 274.142 240.403 274.883 240.036 275.5C239.686 276.117 239.228 276.583 238.661 276.9C238.094 277.217 237.486 277.375 236.836 277.375ZM250.271 283.275C249.104 283.275 248.087 283.067 247.221 282.65C246.354 282.233 245.662 281.642 245.146 280.875C244.646 280.108 244.371 279.217 244.321 278.2H246.971C247.054 279.05 247.387 279.733 247.971 280.25C248.554 280.767 249.329 281.025 250.296 281.025C251.046 281.025 251.696 280.858 252.246 280.525C252.796 280.192 253.221 279.717 253.521 279.1C253.821 278.483 253.971 277.767 253.971 276.95C253.971 275.883 253.654 275.025 253.021 274.375C252.387 273.708 251.554 273.375 250.521 273.375C249.804 273.375 249.129 273.558 248.496 273.925C247.862 274.275 247.354 274.733 246.971 275.3H244.521L245.996 265.55H255.846V267.8H248.146L247.346 272.85C247.829 272.317 248.412 271.892 249.096 271.575C249.779 271.258 250.479 271.1 251.196 271.1C252.279 271.1 253.237 271.35 254.071 271.85C254.904 272.333 255.554 273.008 256.021 273.875C256.487 274.725 256.721 275.733 256.721 276.9C256.721 278.2 256.454 279.333 255.921 280.3C255.387 281.25 254.637 281.983 253.671 282.5C252.704 283.017 251.571 283.275 250.271 283.275ZM266.605 283.3C265.189 283.3 263.98 282.933 262.98 282.2C261.98 281.45 261.214 280.4 260.68 279.05C260.147 277.683 259.88 276.092 259.88 274.275C259.88 272.425 260.147 270.825 260.68 269.475C261.214 268.125 261.98 267.083 262.98 266.35C263.98 265.617 265.189 265.25 266.605 265.25C268.039 265.25 269.247 265.617 270.23 266.35C271.23 267.083 271.997 268.125 272.53 269.475C273.064 270.808 273.33 272.408 273.33 274.275C273.33 276.108 273.064 277.7 272.53 279.05C271.997 280.4 271.23 281.45 270.23 282.2C269.247 282.933 268.039 283.3 266.605 283.3ZM266.605 281.05C267.922 281.05 268.914 280.458 269.58 279.275C270.247 278.075 270.58 276.408 270.58 274.275C270.58 272.108 270.247 270.442 269.58 269.275C268.914 268.092 267.922 267.5 266.605 267.5C265.305 267.5 264.322 268.092 263.655 269.275C262.989 270.442 262.655 272.108 262.655 274.275C262.655 276.408 262.989 278.075 263.655 279.275C264.322 280.458 265.305 281.05 266.605 281.05ZM276.265 283L287.315 265.55H289.465L278.44 283H276.265ZM286.615 283.3C285.899 283.3 285.265 283.133 284.715 282.8C284.165 282.45 283.732 281.967 283.415 281.35C283.115 280.733 282.965 280.008 282.965 279.175C282.965 278.342 283.115 277.625 283.415 277.025C283.732 276.408 284.165 275.933 284.715 275.6C285.265 275.25 285.899 275.075 286.615 275.075C287.365 275.075 288.015 275.25 288.565 275.6C289.115 275.933 289.54 276.408 289.84 277.025C290.157 277.625 290.315 278.342 290.315 279.175C290.315 280.008 290.157 280.733 289.84 281.35C289.54 281.967 289.115 282.45 288.565 282.8C288.015 283.133 287.365 283.3 286.615 283.3ZM286.64 281.6C287.157 281.6 287.574 281.383 287.89 280.95C288.224 280.5 288.39 279.908 288.39 279.175C288.39 278.458 288.224 277.883 287.89 277.45C287.574 277 287.157 276.775 286.64 276.775C286.124 276.775 285.699 277 285.365 277.45C285.049 277.883 284.89 278.458 284.89 279.175C284.89 279.908 285.049 280.5 285.365 280.95C285.699 281.383 286.124 281.6 286.64 281.6ZM279.09 273.425C278.357 273.425 277.715 273.258 277.165 272.925C276.615 272.575 276.19 272.092 275.89 271.475C275.59 270.858 275.44 270.133 275.44 269.3C275.44 268.467 275.59 267.75 275.89 267.15C276.19 266.533 276.615 266.058 277.165 265.725C277.715 265.375 278.357 265.2 279.09 265.2C279.84 265.2 280.49 265.375 281.04 265.725C281.59 266.058 282.015 266.533 282.315 267.15C282.615 267.75 282.765 268.467 282.765 269.3C282.765 270.133 282.615 270.858 282.315 271.475C282.015 272.092 281.59 272.575 281.04 272.925C280.49 273.258 279.84 273.425 279.09 273.425ZM279.09 271.725C279.624 271.725 280.049 271.508 280.365 271.075C280.699 270.625 280.865 270.033 280.865 269.3C280.865 268.583 280.699 268.008 280.365 267.575C280.049 267.125 279.624 266.9 279.09 266.9C278.574 266.9 278.157 267.125 277.84 267.575C277.524 268.008 277.365 268.583 277.365 269.3C277.365 270.033 277.524 270.625 277.84 271.075C278.157 271.508 278.574 271.725 279.09 271.725Z" fill="white"/>
<path d="M69.4957 187.3C68.3457 187.3 67.2874 187.067 66.3207 186.6C65.354 186.133 64.579 185.458 63.9957 184.575C63.429 183.692 63.1457 182.608 63.1457 181.325H65.7957C65.8124 182.058 65.979 182.708 66.2957 183.275C66.6124 183.825 67.0457 184.25 67.5957 184.55C68.1624 184.85 68.7957 185 69.4957 185C70.5624 185 71.4207 184.725 72.0707 184.175C72.7207 183.625 73.0457 182.917 73.0457 182.05C73.0457 181.367 72.854 180.808 72.4707 180.375C72.104 179.925 71.604 179.592 70.9707 179.375C70.354 179.158 69.6624 179.05 68.8957 179.05H67.9707V176.85H68.9707C69.654 176.85 70.2374 176.725 70.7207 176.475C71.2207 176.208 71.604 175.858 71.8707 175.425C72.1374 174.992 72.2707 174.525 72.2707 174.025C72.2707 173.258 72.004 172.65 71.4707 172.2C70.954 171.733 70.279 171.5 69.4457 171.5C68.429 171.5 67.604 171.8 66.9707 172.4C66.3374 172.983 65.9957 173.833 65.9457 174.95H63.2957C63.3457 173.7 63.654 172.65 64.2207 171.8C64.804 170.95 65.554 170.317 66.4707 169.9C67.3874 169.467 68.3874 169.25 69.4707 169.25C70.5874 169.25 71.554 169.442 72.3707 169.825C73.204 170.192 73.854 170.717 74.3207 171.4C74.7874 172.067 75.0207 172.858 75.0207 173.775C75.0207 174.392 74.8874 174.975 74.6207 175.525C74.354 176.075 73.9874 176.55 73.5207 176.95C73.0707 177.333 72.5457 177.608 71.9457 177.775C72.6957 177.892 73.354 178.15 73.9207 178.55C74.504 178.933 74.9624 179.433 75.2957 180.05C75.629 180.65 75.7957 181.325 75.7957 182.075C75.7957 183.092 75.5374 184 75.0207 184.8C74.504 185.583 73.7707 186.2 72.8207 186.65C71.8874 187.083 70.779 187.3 69.4957 187.3ZM79.4055 187V185.1C81.7055 183.383 83.5555 181.892 84.9555 180.625C86.3555 179.342 87.3721 178.208 88.0055 177.225C88.6388 176.225 88.9555 175.317 88.9555 174.5C88.9555 173.6 88.6721 172.875 88.1055 172.325C87.5555 171.775 86.7805 171.5 85.7805 171.5C84.7305 171.5 83.8638 171.825 83.1805 172.475C82.4971 173.108 82.1305 174.008 82.0805 175.175H79.4055C79.4888 173.925 79.8055 172.858 80.3555 171.975C80.9221 171.075 81.6721 170.4 82.6055 169.95C83.5555 169.483 84.6305 169.25 85.8305 169.25C87.0305 169.25 88.0721 169.467 88.9555 169.9C89.8388 170.317 90.5138 170.917 90.9805 171.7C91.4638 172.467 91.7055 173.358 91.7055 174.375C91.7055 175.475 91.4221 176.558 90.8555 177.625C90.3055 178.675 89.4138 179.783 88.1805 180.95C86.9638 182.1 85.3471 183.367 83.3305 184.75H91.7555V187H79.4055ZM95.2652 187L106.315 169.55H108.465L97.4402 187H95.2652ZM105.615 187.3C104.899 187.3 104.265 187.133 103.715 186.8C103.165 186.45 102.732 185.967 102.415 185.35C102.115 184.733 101.965 184.008 101.965 183.175C101.965 182.342 102.115 181.625 102.415 181.025C102.732 180.408 103.165 179.933 103.715 179.6C104.265 179.25 104.899 179.075 105.615 179.075C106.365 179.075 107.015 179.25 107.565 179.6C108.115 179.933 108.54 180.408 108.84 181.025C109.157 181.625 109.315 182.342 109.315 183.175C109.315 184.008 109.157 184.733 108.84 185.35C108.54 185.967 108.115 186.45 107.565 186.8C107.015 187.133 106.365 187.3 105.615 187.3ZM105.64 185.6C106.157 185.6 106.574 185.383 106.89 184.95C107.224 184.5 107.39 183.908 107.39 183.175C107.39 182.458 107.224 181.883 106.89 181.45C106.574 181 106.157 180.775 105.64 180.775C105.124 180.775 104.699 181 104.365 181.45C104.049 181.883 103.89 182.458 103.89 183.175C103.89 183.908 104.049 184.5 104.365 184.95C104.699 185.383 105.124 185.6 105.64 185.6ZM98.0902 177.425C97.3569 177.425 96.7152 177.258 96.1652 176.925C95.6152 176.575 95.1902 176.092 94.8902 175.475C94.5902 174.858 94.4402 174.133 94.4402 173.3C94.4402 172.467 94.5902 171.75 94.8902 171.15C95.1902 170.533 95.6152 170.058 96.1652 169.725C96.7152 169.375 97.3569 169.2 98.0902 169.2C98.8402 169.2 99.4902 169.375 100.04 169.725C100.59 170.058 101.015 170.533 101.315 171.15C101.615 171.75 101.765 172.467 101.765 173.3C101.765 174.133 101.615 174.858 101.315 175.475C101.015 176.092 100.59 176.575 100.04 176.925C99.4902 177.258 98.8402 177.425 98.0902 177.425ZM98.0902 175.725C98.6236 175.725 99.0486 175.508 99.3652 175.075C99.6986 174.625 99.8652 174.033 99.8652 173.3C99.8652 172.583 99.6986 172.008 99.3652 171.575C99.0486 171.125 98.6236 170.9 98.0902 170.9C97.5736 170.9 97.1569 171.125 96.8402 171.575C96.5236 172.008 96.3652 172.583 96.3652 173.3C96.3652 174.033 96.5236 174.625 96.8402 175.075C97.1569 175.508 97.5736 175.725 98.0902 175.725Z" fill="white"/>
<path d="M195.146 70V59.225L195.271 55.675L192.446 57.975L189.321 60.475V57.35L195.871 52.55H197.796V70H195.146ZM189.321 70V67.75H201.671V70H189.321ZM211.605 70.3C210.189 70.3 208.98 69.9333 207.98 69.2C206.98 68.45 206.214 67.4 205.68 66.05C205.147 64.6833 204.88 63.0917 204.88 61.275C204.88 59.425 205.147 57.825 205.68 56.475C206.214 55.125 206.98 54.0833 207.98 53.35C208.98 52.6167 210.189 52.25 211.605 52.25C213.039 52.25 214.247 52.6167 215.23 53.35C216.23 54.0833 216.997 55.125 217.53 56.475C218.064 57.8083 218.33 59.4083 218.33 61.275C218.33 63.1083 218.064 64.7 217.53 66.05C216.997 67.4 216.23 68.45 215.23 69.2C214.247 69.9333 213.039 70.3 211.605 70.3ZM211.605 68.05C212.922 68.05 213.914 67.4583 214.58 66.275C215.247 65.075 215.58 63.4083 215.58 61.275C215.58 59.1083 215.247 57.4417 214.58 56.275C213.914 55.0917 212.922 54.5 211.605 54.5C210.305 54.5 209.322 55.0917 208.655 56.275C207.989 57.4417 207.655 59.1083 207.655 61.275C207.655 63.4083 207.989 65.075 208.655 66.275C209.322 67.4583 210.305 68.05 211.605 68.05ZM221.265 70L232.315 52.55H234.465L223.44 70H221.265ZM231.615 70.3C230.899 70.3 230.265 70.1333 229.715 69.8C229.165 69.45 228.732 68.9667 228.415 68.35C228.115 67.7333 227.965 67.0083 227.965 66.175C227.965 65.3417 228.115 64.625 228.415 64.025C228.732 63.4083 229.165 62.9333 229.715 62.6C230.265 62.25 230.899 62.075 231.615 62.075C232.365 62.075 233.015 62.25 233.565 62.6C234.115 62.9333 234.54 63.4083 234.84 64.025C235.157 64.625 235.315 65.3417 235.315 66.175C235.315 67.0083 235.157 67.7333 234.84 68.35C234.54 68.9667 234.115 69.45 233.565 69.8C233.015 70.1333 232.365 70.3 231.615 70.3ZM231.64 68.6C232.157 68.6 232.574 68.3833 232.89 67.95C233.224 67.5 233.39 66.9083 233.39 66.175C233.39 65.4583 233.224 64.8833 232.89 64.45C232.574 64 232.157 63.775 231.64 63.775C231.124 63.775 230.699 64 230.365 64.45C230.049 64.8833 229.89 65.4583 229.89 66.175C229.89 66.9083 230.049 67.5 230.365 67.95C230.699 68.3833 231.124 68.6 231.64 68.6ZM224.09 60.425C223.357 60.425 222.715 60.2583 222.165 59.925C221.615 59.575 221.19 59.0917 220.89 58.475C220.59 57.8583 220.44 57.1333 220.44 56.3C220.44 55.4667 220.59 54.75 220.89 54.15C221.19 53.5333 221.615 53.0583 222.165 52.725C222.715 52.375 223.357 52.2 224.09 52.2C224.84 52.2 225.49 52.375 226.04 52.725C226.59 53.0583 227.015 53.5333 227.315 54.15C227.615 54.75 227.765 55.4667 227.765 56.3C227.765 57.1333 227.615 57.8583 227.315 58.475C227.015 59.0917 226.59 59.575 226.04 59.925C225.49 60.2583 224.84 60.425 224.09 60.425ZM224.09 58.725C224.624 58.725 225.049 58.5083 225.365 58.075C225.699 57.625 225.865 57.0333 225.865 56.3C225.865 55.5833 225.699 55.0083 225.365 54.575C225.049 54.125 224.624 53.9 224.09 53.9C223.574 53.9 223.157 54.125 222.84 54.575C222.524 55.0083 222.365 55.5833 222.365 56.3C222.365 57.0333 222.524 57.625 222.84 58.075C223.157 58.5083 223.574 58.725 224.09 58.725Z" fill="white"/>
<path d="M195.986 89V88.118C197.302 87.1193 198.357 86.2467 199.15 85.5C199.953 84.7533 200.536 84.0953 200.9 83.526C201.264 82.9473 201.446 82.42 201.446 81.944C201.446 81.3933 201.278 80.95 200.942 80.614C200.606 80.278 200.125 80.11 199.5 80.11C198.865 80.11 198.338 80.3013 197.918 80.684C197.507 81.0667 197.279 81.608 197.232 82.308H196.014C196.061 81.6173 196.238 81.0293 196.546 80.544C196.854 80.0587 197.265 79.69 197.778 79.438C198.291 79.186 198.87 79.06 199.514 79.06C200.186 79.06 200.76 79.1813 201.236 79.424C201.712 79.6573 202.076 79.984 202.328 80.404C202.58 80.824 202.706 81.314 202.706 81.874C202.706 82.49 202.543 83.106 202.216 83.722C201.889 84.3287 201.362 84.9773 200.634 85.668C199.906 86.3493 198.945 87.11 197.75 87.95H202.734V89H195.986ZM208.074 89.168C207.29 89.168 206.618 88.9627 206.058 88.552C205.507 88.132 205.087 87.544 204.798 86.788C204.508 86.032 204.364 85.1407 204.364 84.114C204.364 83.078 204.508 82.182 204.798 81.426C205.087 80.67 205.507 80.0867 206.058 79.676C206.618 79.2653 207.29 79.06 208.074 79.06C208.867 79.06 209.534 79.2653 210.076 79.676C210.626 80.0867 211.046 80.67 211.336 81.426C211.625 82.1727 211.77 83.0687 211.77 84.114C211.77 85.15 211.625 86.046 211.336 86.802C211.046 87.558 210.626 88.1413 210.076 88.552C209.534 88.9627 208.867 89.168 208.074 89.168ZM208.074 88.118C208.876 88.118 209.483 87.7633 209.894 87.054C210.304 86.3447 210.51 85.3647 210.51 84.114C210.51 82.854 210.304 81.874 209.894 81.174C209.483 80.4647 208.876 80.11 208.074 80.11C207.271 80.11 206.664 80.4647 206.254 81.174C205.843 81.874 205.638 82.854 205.638 84.114C205.638 85.3647 205.843 86.3447 206.254 87.054C206.664 87.7633 207.271 88.118 208.074 88.118ZM213.357 89V88.118C214.673 87.1193 215.728 86.2467 216.521 85.5C217.324 84.7533 217.907 84.0953 218.271 83.526C218.635 82.9473 218.817 82.42 218.817 81.944C218.817 81.3933 218.649 80.95 218.313 80.614C217.977 80.278 217.496 80.11 216.871 80.11C216.236 80.11 215.709 80.3013 215.289 80.684C214.878 81.0667 214.65 81.608 214.603 82.308H213.385C213.432 81.6173 213.609 81.0293 213.917 80.544C214.225 80.0587 214.636 79.69 215.149 79.438C215.662 79.186 216.241 79.06 216.885 79.06C217.557 79.06 218.131 79.1813 218.607 79.424C219.083 79.6573 219.447 79.984 219.699 80.404C219.951 80.824 220.077 81.314 220.077 81.874C220.077 82.49 219.914 83.106 219.587 83.722C219.26 84.3287 218.733 84.9773 218.005 85.668C217.277 86.3493 216.316 87.11 215.121 87.95H220.105V89H213.357ZM225.445 89.168C224.661 89.168 223.989 88.9627 223.429 88.552C222.878 88.132 222.458 87.544 222.169 86.788C221.879 86.032 221.735 85.1407 221.735 84.114C221.735 83.078 221.879 82.182 222.169 81.426C222.458 80.67 222.878 80.0867 223.429 79.676C223.989 79.2653 224.661 79.06 225.445 79.06C226.238 79.06 226.905 79.2653 227.447 79.676C227.997 80.0867 228.417 80.67 228.707 81.426C228.996 82.1727 229.141 83.0687 229.141 84.114C229.141 85.15 228.996 86.046 228.707 86.802C228.417 87.558 227.997 88.1413 227.447 88.552C226.905 88.9627 226.238 89.168 225.445 89.168ZM225.445 88.118C226.247 88.118 226.854 87.7633 227.265 87.054C227.675 86.3447 227.881 85.3647 227.881 84.114C227.881 82.854 227.675 81.874 227.265 81.174C226.854 80.4647 226.247 80.11 225.445 80.11C224.642 80.11 224.035 80.4647 223.625 81.174C223.214 81.874 223.009 82.854 223.009 84.114C223.009 85.3647 223.214 86.3447 223.625 87.054C224.035 87.7633 224.642 88.118 225.445 88.118Z" fill="white"/>
<path d="M69.9861 205V204.118C71.3021 203.119 72.3568 202.247 73.1501 201.5C73.9528 200.753 74.5361 200.095 74.9001 199.526C75.2641 198.947 75.4461 198.42 75.4461 197.944C75.4461 197.393 75.2781 196.95 74.9421 196.614C74.6061 196.278 74.1255 196.11 73.5001 196.11C72.8655 196.11 72.3381 196.301 71.9181 196.684C71.5075 197.067 71.2788 197.608 71.2321 198.308H70.0141C70.0608 197.617 70.2381 197.029 70.5461 196.544C70.8541 196.059 71.2648 195.69 71.7781 195.438C72.2915 195.186 72.8701 195.06 73.5141 195.06C74.1861 195.06 74.7601 195.181 75.2361 195.424C75.7121 195.657 76.0761 195.984 76.3281 196.404C76.5801 196.824 76.7061 197.314 76.7061 197.874C76.7061 198.49 76.5428 199.106 76.2161 199.722C75.8895 200.329 75.3621 200.977 74.6341 201.668C73.9061 202.349 72.9448 203.11 71.7501 203.95H76.7341V205H69.9861ZM82.0736 205.168C81.2896 205.168 80.6176 204.963 80.0576 204.552C79.5069 204.132 79.0869 203.544 78.7976 202.788C78.5083 202.032 78.3636 201.141 78.3636 200.114C78.3636 199.078 78.5083 198.182 78.7976 197.426C79.0869 196.67 79.5069 196.087 80.0576 195.676C80.6176 195.265 81.2896 195.06 82.0736 195.06C82.8669 195.06 83.5343 195.265 84.0756 195.676C84.6263 196.087 85.0463 196.67 85.3356 197.426C85.6249 198.173 85.7696 199.069 85.7696 200.114C85.7696 201.15 85.6249 202.046 85.3356 202.802C85.0463 203.558 84.6263 204.141 84.0756 204.552C83.5343 204.963 82.8669 205.168 82.0736 205.168ZM82.0736 204.118C82.8763 204.118 83.4829 203.763 83.8936 203.054C84.3043 202.345 84.5096 201.365 84.5096 200.114C84.5096 198.854 84.3043 197.874 83.8936 197.174C83.4829 196.465 82.8763 196.11 82.0736 196.11C81.2709 196.11 80.6643 196.465 80.2536 197.174C79.8429 197.874 79.6376 198.854 79.6376 200.114C79.6376 201.365 79.8429 202.345 80.2536 203.054C80.6643 203.763 81.2709 204.118 82.0736 204.118ZM87.3571 205V204.118C88.6731 203.119 89.7277 202.247 90.5211 201.5C91.3237 200.753 91.9071 200.095 92.2711 199.526C92.6351 198.947 92.8171 198.42 92.8171 197.944C92.8171 197.393 92.6491 196.95 92.3131 196.614C91.9771 196.278 91.4964 196.11 90.8711 196.11C90.2364 196.11 89.7091 196.301 89.2891 196.684C88.8784 197.067 88.6497 197.608 88.6031 198.308H87.3851C87.4317 197.617 87.6091 197.029 87.9171 196.544C88.2251 196.059 88.6357 195.69 89.1491 195.438C89.6624 195.186 90.2411 195.06 90.8851 195.06C91.5571 195.06 92.1311 195.181 92.6071 195.424C93.0831 195.657 93.4471 195.984 93.6991 196.404C93.9511 196.824 94.0771 197.314 94.0771 197.874C94.0771 198.49 93.9137 199.106 93.5871 199.722C93.2604 200.329 92.7331 200.977 92.0051 201.668C91.2771 202.349 90.3157 203.11 89.1211 203.95H94.1051V205H87.3571ZM99.5285 205V198.644L99.5705 196.684L98.0165 197.958L96.2245 199.386V197.93L99.8505 195.228H100.733V205H99.5285ZM96.2245 205V203.95H102.875V205H96.2245Z" fill="white"/>
<path d="M241.986 299V298.118C243.302 297.119 244.357 296.247 245.15 295.5C245.953 294.753 246.536 294.095 246.9 293.526C247.264 292.947 247.446 292.42 247.446 291.944C247.446 291.393 247.278 290.95 246.942 290.614C246.606 290.278 246.125 290.11 245.5 290.11C244.865 290.11 244.338 290.301 243.918 290.684C243.507 291.067 243.279 291.608 243.232 292.308H242.014C242.061 291.617 242.238 291.029 242.546 290.544C242.854 290.059 243.265 289.69 243.778 289.438C244.291 289.186 244.87 289.06 245.514 289.06C246.186 289.06 246.76 289.181 247.236 289.424C247.712 289.657 248.076 289.984 248.328 290.404C248.58 290.824 248.706 291.314 248.706 291.874C248.706 292.49 248.543 293.106 248.216 293.722C247.889 294.329 247.362 294.977 246.634 295.668C245.906 296.349 244.945 297.11 243.75 297.95H248.734V299H241.986ZM254.074 299.168C253.29 299.168 252.618 298.963 252.058 298.552C251.507 298.132 251.087 297.544 250.798 296.788C250.508 296.032 250.364 295.141 250.364 294.114C250.364 293.078 250.508 292.182 250.798 291.426C251.087 290.67 251.507 290.087 252.058 289.676C252.618 289.265 253.29 289.06 254.074 289.06C254.867 289.06 255.534 289.265 256.076 289.676C256.626 290.087 257.046 290.67 257.336 291.426C257.625 292.173 257.77 293.069 257.77 294.114C257.77 295.15 257.625 296.046 257.336 296.802C257.046 297.558 256.626 298.141 256.076 298.552C255.534 298.963 254.867 299.168 254.074 299.168ZM254.074 298.118C254.876 298.118 255.483 297.763 255.894 297.054C256.304 296.345 256.51 295.365 256.51 294.114C256.51 292.854 256.304 291.874 255.894 291.174C255.483 290.465 254.876 290.11 254.074 290.11C253.271 290.11 252.664 290.465 252.254 291.174C251.843 291.874 251.638 292.854 251.638 294.114C251.638 295.365 251.843 296.345 252.254 297.054C252.664 297.763 253.271 298.118 254.074 298.118ZM259.357 299V298.118C260.673 297.119 261.728 296.247 262.521 295.5C263.324 294.753 263.907 294.095 264.271 293.526C264.635 292.947 264.817 292.42 264.817 291.944C264.817 291.393 264.649 290.95 264.313 290.614C263.977 290.278 263.496 290.11 262.871 290.11C262.236 290.11 261.709 290.301 261.289 290.684C260.878 291.067 260.65 291.608 260.603 292.308H259.385C259.432 291.617 259.609 291.029 259.917 290.544C260.225 290.059 260.636 289.69 261.149 289.438C261.662 289.186 262.241 289.06 262.885 289.06C263.557 289.06 264.131 289.181 264.607 289.424C265.083 289.657 265.447 289.984 265.699 290.404C265.951 290.824 266.077 291.314 266.077 291.874C266.077 292.49 265.914 293.106 265.587 293.722C265.26 294.329 264.733 294.977 264.005 295.668C263.277 296.349 262.316 297.11 261.121 297.95H266.105V299H259.357ZM268.043 299V298.118C269.359 297.119 270.413 296.247 271.207 295.5C272.009 294.753 272.593 294.095 272.957 293.526C273.321 292.947 273.503 292.42 273.503 291.944C273.503 291.393 273.335 290.95 272.999 290.614C272.663 290.278 272.182 290.11 271.557 290.11C270.922 290.11 270.395 290.301 269.975 290.684C269.564 291.067 269.335 291.608 269.289 292.308H268.071C268.117 291.617 268.295 291.029 268.603 290.544C268.911 290.059 269.321 289.69 269.835 289.438C270.348 289.186 270.927 289.06 271.571 289.06C272.243 289.06 272.817 289.181 273.293 289.424C273.769 289.657 274.133 289.984 274.385 290.404C274.637 290.824 274.763 291.314 274.763 291.874C274.763 292.49 274.599 293.106 274.273 293.722C273.946 294.329 273.419 294.977 272.691 295.668C271.963 296.349 271.001 297.11 269.807 297.95H274.791V299H268.043Z" fill="white"/>
</svg>
