<svg width="246" height="246" viewBox="0 0 246 246" fill="none" xmlns="http://www.w3.org/2000/svg">
<rect width="246" height="246" fill="#00704A"/>
<g clip-path="url(#clip0_18_216)">
<path d="M121.617 115.392C105.916 111.311 100.867 107.126 100.867 100.555C100.867 93.0162 107.818 87.725 119.542 87.725C131.853 87.725 136.418 93.6042 136.833 102.25H152.119C151.67 90.3187 144.372 79.4596 129.917 75.8975V60.75H109.167V75.69C95.7483 78.6296 84.9583 87.2754 84.9583 100.659C84.9583 116.637 98.2037 124.591 117.467 129.225C134.793 133.375 138.217 139.427 138.217 145.929C138.217 150.667 134.862 158.275 119.542 158.275C105.293 158.275 99.6562 151.877 98.93 143.75H83.6787C84.5433 158.897 95.852 167.37 109.167 170.241V185.25H129.917V170.379C143.37 167.785 154.125 160.004 154.125 145.79C154.125 126.216 137.317 119.507 121.617 115.392V115.392Z" fill="white"/>
</g>
<defs>
<clipPath id="clip0_18_216">
<rect width="166" height="166" fill="white" transform="translate(40 40)"/>
</clipPath>
</defs>
</svg>
